<svg xmlns="http://www.w3.org/2000/svg" viewBox="0 0 800 450" preserveAspectRatio="xMidYMid slice">
  <defs>
    <linearGradient id="sky" x1="0" y1="0" x2="0" y2="1">
      <stop offset="0%" stop-color="#7897BE"/>
      <stop offset="100%" stop-color="#D3DDE2"/>
    </linearGradient>
  </defs>
  <rect width="800" height="450" fill="url(#sky)"/>
  <path d="M100 300 C140 250 220 250 260 300 S340 350 380 300" fill="#F6F4F0" opacity="0.9"/>
  <path d="M320 280 C360 230 440 230 480 280 S560 330 600 280" fill="#F6F4F0" opacity="0.9"/>
  <path d="M520 320 C560 270 640 270 680 320 S760 370 780 320" fill="#F6F4F0" opacity="0.8"/>
  <g fill="#2E5077" opacity="0.9">
    <path d="M220 350c4 8 10 18 4 26-6 8-16 10-22 4-6-6-4-18 2-26 6-8 14-10 16-4z"/>
    <path d="M280 370c4 8 10 18 4 26-6 8-16 10-22 4-6-6-4-18 2-26 6-8 14-10 16-4z"/>
    <path d="M360 350c4 8 10 18 4 26-6 8-16 10-22 4-6-6-4-18 2-26 6-8 14-10 16-4z"/>
    <path d="M520 360c4 8 10 18 4 26-6 8-16 10-22 4-6-6-4-18 2-26 6-8 14-10 16-4z"/>
    <path d="M600 340c4 8 10 18 4 26-6 8-16 10-22 4-6-6-4-18 2-26 6-8 14-10 16-4z"/>
  </g>
</svg>
